<svg width="447" height="421" viewBox="0 0 447 421" fill="none" xmlns="http://www.w3.org/2000/svg">
<path d="M444.274 80.36C441.716 76.694 437.6 74.428 433.129 74.237L155.942 62.289C147.989 61.941 141.343 68.081 141.003 75.997C140.665 83.91 146.795 90.596 154.71 90.936L413.131 102.076L362.32 260.61H136.205L95.3542 38.179C94.4562 33.304 91.1092 29.237 86.4932 27.426L19.5862 1.141C12.2122 -1.746 3.89117 1.876 0.995174 9.241C-1.89583 16.61 1.72517 24.936 9.09517 27.832L68.5862 51.203L110.158 277.538C111.411 284.342 117.341 289.284 124.262 289.284H131.158L115.411 333.024C114.093 336.688 114.636 340.757 116.879 343.94C119.119 347.124 122.762 349.018 126.651 349.018H137.696C130.852 356.635 126.651 366.664 126.651 377.693C126.651 401.411 145.95 420.705 169.663 420.705C193.376 420.705 212.675 401.411 212.675 377.693C212.675 366.665 208.474 356.635 201.631 349.018H295.408C288.561 356.635 284.361 366.664 284.361 377.693C284.361 401.411 303.655 420.705 327.373 420.705C351.092 420.705 370.385 401.411 370.385 377.693C370.385 366.665 366.185 356.635 359.343 349.018H372.775C379.375 349.018 384.723 343.669 384.723 337.071C384.723 330.471 379.374 325.123 372.775 325.123H143.651L156.553 289.28H372.774C379.009 289.28 384.526 285.252 386.425 279.32L446.164 92.933C447.536 88.679 446.832 84.028 444.274 80.36ZM169.664 396.814C159.121 396.814 150.547 388.241 150.547 377.698C150.547 367.155 159.121 358.581 169.664 358.581C180.207 358.581 188.78 367.155 188.78 377.698C188.78 388.241 180.207 396.814 169.664 396.814ZM327.373 396.814C316.83 396.814 308.257 388.241 308.257 377.698C308.257 367.155 316.83 358.581 327.373 358.581C337.916 358.581 346.489 367.155 346.489 377.698C346.489 388.241 337.916 396.814 327.373 396.814Z" fill="white"/>
</svg>
